<?xml version="1.0" encoding="UTF-8" standalone="no"?>
<!DOCTYPE svg PUBLIC "-//W3C//DTD SVG 1.1//EN"
 "http://www.w3.org/Graphics/SVG/1.1/DTD/svg11.dtd">
<!-- Generated by graphviz version 2.26.3 (20100126.1600)
 -->
<!-- Title: G Pages: 1 -->
<svg width="4056pt" height="1048pt"
 viewBox="0.00 0.00 4056.00 1047.98" xmlns="http://www.w3.org/2000/svg" xmlns:xlink="http://www.w3.org/1999/xlink">
<g id="graph1" class="graph" transform="scale(1 1) rotate(0) translate(4 1043.98)">
<title>G</title>
<polygon fill="white" stroke="white" points="-4,5 -4,-1043.98 4053,-1043.98 4053,5 -4,5"/>
<g id="graph2" class="cluster"><title>cluster_cucumber</title>
<polygon fill="none" stroke="black" points="1956,-516 1956,-591 2168,-591 2168,-516 1956,-516"/>
<text text-anchor="middle" x="2062" y="-574.4" font-family="Times,serif" font-size="14.00">Cucumber: availability_steps</text>
</g>
<g id="graph3" class="cluster"><title>cluster_contract_line</title>
<polygon fill="none" stroke="black" points="3948,-431 3948,-506 4040,-506 4040,-431 3948,-431"/>
<text text-anchor="middle" x="3994" y="-489.4" font-family="Times,serif" font-size="14.00">ContractLine</text>
</g>
<g id="graph4" class="cluster"><title>cluster_models_helper</title>
<polygon fill="none" stroke="black" points="1572,-22 1572,-151 2131,-151 2131,-22 1572,-22"/>
<text text-anchor="middle" x="1851.5" y="-134.4" font-family="Times,serif" font-size="14.00">ModelsHelper</text>
</g>
<g id="graph5" class="cluster"><title>cluster_model</title>
<polygon fill="none" stroke="black" points="2296,-132 2296,-423 3256,-423 3256,-132 2296,-132"/>
<text text-anchor="middle" x="2776" y="-406.4" font-family="Times,serif" font-size="14.00">Model</text>
</g>
<g id="graph6" class="cluster"><title>cluster_availability</title>
<polygon fill="none" stroke="black" points="2754,-431 2754,-614 3820,-614 3820,-431 2754,-431"/>
<text text-anchor="middle" x="3287" y="-597.4" font-family="Times,serif" font-size="14.00">Availability</text>
</g>
<g id="graph7" class="cluster"><title>cluster_qty_period</title>
<polygon fill="none" stroke="black" points="3122,-622 3122,-913 3228,-913 3228,-622 3122,-622"/>
<text text-anchor="middle" x="3175" y="-896.4" font-family="Times,serif" font-size="14.00">QtyPeriod</text>
</g>
<g id="graph8" class="cluster"><title>cluster_models_controller</title>
<polygon fill="none" stroke="black" points="1287,-91 1287,-166 1408,-166 1408,-91 1287,-91"/>
<text text-anchor="middle" x="1347.5" y="-149.4" font-family="Times,serif" font-size="14.00">ModelsController</text>
</g>
<g id="graph9" class="cluster"><title>cluster_acknowledge_controller</title>
<polygon fill="none" stroke="black" points="8,-850 8,-925 312,-925 312,-850 8,-850"/>
<text text-anchor="middle" x="160" y="-908.4" font-family="Times,serif" font-size="14.00">AcknowledgeController</text>
</g>
<g id="graph10" class="cluster"><title>cluster_orders_controller</title>
<polygon fill="none" stroke="black" points="29,-708 29,-837 291,-837 291,-708 29,-708"/>
<text text-anchor="middle" x="160" y="-820.4" font-family="Times,serif" font-size="14.00">app/controllers/orders_controller.rb</text>
</g>
<g id="graph11" class="cluster"><title>cluster_document_line</title>
<polygon fill="none" stroke="black" points="942,-325 942,-508 2163,-508 2163,-325 942,-325"/>
<text text-anchor="middle" x="1552.5" y="-491.4" font-family="Times,serif" font-size="14.00">DocumentLine</text>
</g>
<g id="graph12" class="cluster"><title>cluster_ordert_line</title>
<polygon fill="none" stroke="black" points="1271,-583 1271,-658 1423,-658 1423,-583 1271,-583"/>
<text text-anchor="middle" x="1347" y="-641.4" font-family="Times,serif" font-size="14.00">OrderLine</text>
</g>
<g id="graph13" class="cluster"><title>cluster_order</title>
<polygon fill="none" stroke="black" points="523,-796 523,-925 1026,-925 1026,-796 523,-796"/>
<text text-anchor="middle" x="774.5" y="-908.4" font-family="Times,serif" font-size="14.00">Order</text>
</g>
<g id="graph14" class="cluster"><title>cluster_acknowledge_line</title>
<polygon fill="none" stroke="black" points="459,-485 459,-560 687,-560 687,-485 459,-485"/>
<text text-anchor="middle" x="573" y="-543.4" font-family="Times,serif" font-size="14.00">backend/acknowledge/_line.html.erb</text>
</g>
<g id="graph15" class="cluster"><title>cluster_acknowledge_approve</title>
<polygon fill="none" stroke="black" points="451,-629 451,-704 695,-704 695,-629 451,-629"/>
<text text-anchor="middle" x="573" y="-687.4" font-family="Times,serif" font-size="14.00">backend/acknowledge/approve.html.erb</text>
</g>
<g id="graph16" class="cluster"><title>cluster_models_index</title>
<polygon fill="none" stroke="black" points="1964,-242 1964,-317 2161,-317 2161,-242 1964,-242"/>
<text text-anchor="middle" x="2062.5" y="-300.4" font-family="Times,serif" font-size="14.00">backend/models/index.html.erb</text>
</g>
<g id="graph17" class="cluster"><title>cluster_models_show</title>
<polygon fill="none" stroke="black" points="1250,-8 1250,-83 1444,-83 1444,-8 1250,-8"/>
<text text-anchor="middle" x="1347" y="-66.4" font-family="Times,serif" font-size="14.00">backend/models/show.html.erb</text>
</g>
<g id="graph18" class="cluster"><title>cluster_frontend_models</title>
<polygon fill="none" stroke="black" points="894,-91 894,-166 1062,-166 1062,-91 894,-91"/>
<text text-anchor="middle" x="978" y="-149.4" font-family="Times,serif" font-size="14.00">frontend/_models.html.erb</text>
</g>
<g id="graph19" class="cluster"><title>cluster_acknowledge_change_line_quantity</title>
<polygon fill="none" stroke="black" points="834,-933 834,-1008 1122,-1008 1122,-933 834,-933"/>
<text text-anchor="middle" x="978" y="-991.4" font-family="Times,serif" font-size="14.00">backend/acknowledge/change_line_quantity.rjs</text>
</g>
<g id="graph20" class="cluster"><title>cluster_hand_over_item_line</title>
<polygon fill="none" stroke="black" points="452,-283 452,-358 695,-358 695,-283 452,-283"/>
<text text-anchor="middle" x="573.5" y="-341.4" font-family="Times,serif" font-size="14.00">backend/hand_over/_item_line.html.erb</text>
</g>
<g id="graph21" class="cluster"><title>cluster_hand_over_option_line</title>
<polygon fill="none" stroke="black" points="446,-371 446,-446 700,-446 700,-371 446,-371"/>
<text text-anchor="middle" x="573" y="-429.4" font-family="Times,serif" font-size="14.00">backend/hand_over/_option_line.html.erb</text>
</g>
<g id="graph22" class="cluster"><title>cluster_orders_line</title>
<polygon fill="none" stroke="black" points="885,-516 885,-591 1072,-591 1072,-516 885,-516"/>
<text text-anchor="middle" x="978.5" y="-574.4" font-family="Times,serif" font-size="14.00">backend/orders/_line.html.erb</text>
</g>
<g id="graph23" class="cluster"><title>cluster_backend_helper</title>
<polygon fill="none" stroke="black" points="2009,-159 2009,-234 2115,-234 2115,-159 2009,-159"/>
<text text-anchor="middle" x="2062" y="-217.4" font-family="Times,serif" font-size="14.00">BackendHelper</text>
</g>
<!-- it_should_always_be_available -->
<g id="node2" class="node"><title>it_should_always_be_available</title>
<polygon fill="none" stroke="black" points="2159,-560 1965,-560 1965,-524 2159,-524 2159,-560"/>
<text text-anchor="middle" x="2062" y="-536.9" font-family="Times,serif" font-size="14.00">it_should_always_be_available</text>
</g>
<!-- available_periods_for_inventory_pool -->
<g id="node12" class="node"><title>available_periods_for_inventory_pool</title>
<polygon fill="none" stroke="black" points="2579,-176 2343,-176 2343,-140 2579,-140 2579,-176"/>
<text text-anchor="middle" x="2461" y="-152.9" font-family="Times,serif" font-size="14.00">available_periods_for_inventory_pool</text>
</g>
<!-- it_should_always_be_available&#45;&gt;available_periods_for_inventory_pool -->
<g id="edge78" class="edge"><title>it_should_always_be_available&#45;&gt;available_periods_for_inventory_pool:w</title>
<path fill="none" stroke="black" d="M2108,-524C2108,-524 2147.16,-529.468 2168,-512 2299.75,-401.576 2172.92,-167.842 2332.59,-158.301"/>
<polygon fill="black" stroke="black" points="2333.11,-161.788 2343,-158 2332.9,-154.791 2333.11,-161.788"/>
</g>
<!-- maximum_available_for_inventory_pool -->
<g id="node15" class="node"><title>maximum_available_for_inventory_pool</title>
<polygon fill="none" stroke="black" points="2586,-284 2336,-284 2336,-248 2586,-248 2586,-284"/>
<text text-anchor="middle" x="2461" y="-260.9" font-family="Times,serif" font-size="14.00">maximum_available_for_inventory_pool</text>
</g>
<!-- it_should_always_be_available&#45;&gt;maximum_available_for_inventory_pool -->
<g id="edge44" class="edge"><title>it_should_always_be_available&#45;&gt;maximum_available_for_inventory_pool:w</title>
<path fill="none" stroke="black" d="M2108,-524C2108,-524 2145.86,-527.793 2168,-512 2272.74,-437.281 2206.56,-274.861 2324.97,-266.348"/>
<polygon fill="black" stroke="black" points="2325.13,-269.845 2335,-266 2324.88,-262.849 2325.13,-269.845"/>
</g>
<!-- forever -->
<g id="node30" class="node"><title>forever</title>
<polygon fill="none" stroke="black" points="3204,-882 3146,-882 3146,-846 3204,-846 3204,-882"/>
<text text-anchor="middle" x="3175" y="-858.9" font-family="Times,serif" font-size="14.00">forever</text>
</g>
<!-- it_should_always_be_available&#45;&gt;forever -->
<g id="edge42" class="edge"><title>it_should_always_be_available&#45;&gt;forever:w</title>
<path fill="none" stroke="black" d="M2108,-524C2108,-524 2652.75,-859.203 3135.68,-863.949"/>
<polygon fill="black" stroke="black" points="3135.98,-867.451 3146,-864 3136.02,-860.451 3135.98,-867.451"/>
</g>
<!-- is_late -->
<g id="node4" class="node"><title>is_late</title>
<polygon fill="none" stroke="black" points="4021,-475 3967,-475 3967,-439 4021,-439 4021,-475"/>
<text text-anchor="middle" x="3994" y="-451.9" font-family="Times,serif" font-size="14.00">is_late</text>
</g>
<!-- canvas_for_model_in_inventory_pools -->
<g id="node6" class="node"><title>canvas_for_model_in_inventory_pools</title>
<polygon fill="none" stroke="black" points="1819,-120 1581,-120 1581,-84 1819,-84 1819,-120"/>
<text text-anchor="middle" x="1700" y="-96.9" font-family="Times,serif" font-size="14.00">canvas_for_model_in_inventory_pools</text>
</g>
<!-- canvas_for_model_in_inventory_pools&#45;&gt;available_periods_for_inventory_pool -->
<g id="edge82" class="edge"><title>canvas_for_model_in_inventory_pools:e&#45;&gt;available_periods_for_inventory_pool:w</title>
<path fill="none" stroke="black" d="M1820,-102C1881.62,-102 1894.67,-81.0289 1956,-75 2049.77,-65.7819 2076.08,-54.3062 2168,-75 2248.54,-93.1306 2256.38,-152.818 2332.81,-157.684"/>
<polygon fill="black" stroke="black" points="2332.9,-161.188 2343,-158 2333.11,-154.192 2332.9,-161.188"/>
</g>
<!-- canvas_for_model -->
<g id="node7" class="node"><title>canvas_for_model</title>
<polygon fill="none" stroke="black" points="2123,-120 2001,-120 2001,-84 2123,-84 2123,-120"/>
<text text-anchor="middle" x="2062" y="-96.9" font-family="Times,serif" font-size="14.00">canvas_for_model</text>
</g>
<!-- canvas_for_model&#45;&gt;available_periods_for_inventory_pool -->
<g id="edge80" class="edge"><title>canvas_for_model:e&#45;&gt;available_periods_for_inventory_pool:w</title>
<path fill="none" stroke="black" d="M2123,-102C2220.45,-102 2240.76,-154.237 2332.94,-157.808"/>
<polygon fill="black" stroke="black" points="2332.94,-161.309 2343,-158 2333.07,-154.31 2332.94,-161.309"/>
</g>
<!-- canvas_for -->
<g id="node8" class="node"><title>canvas_for</title>
<polygon fill="none" stroke="black" points="1738,-66 1662,-66 1662,-30 1738,-30 1738,-66"/>
<text text-anchor="middle" x="1700" y="-42.9" font-family="Times,serif" font-size="14.00">canvas_for</text>
</g>
<!-- canvas_for&#45;&gt;canvas_for_model -->
<g id="edge66" class="edge"><title>canvas_for:e&#45;&gt;canvas_for_model:w</title>
<path fill="none" stroke="black" d="M1739,-48C1854.41,-48 1880.61,-98.8823 1990.79,-101.864"/>
<polygon fill="black" stroke="black" points="1990.95,-105.366 2001,-102 1991.05,-98.3667 1990.95,-105.366"/>
</g>
<!-- create_availability -->
<g id="node10" class="node"><title>create_availability</title>
<polygon fill="none" stroke="black" points="2921,-284 2799,-284 2799,-248 2921,-248 2921,-284"/>
<text text-anchor="middle" x="2860" y="-260.9" font-family="Times,serif" font-size="14.00">create_availability</text>
</g>
<!-- maximum_borrowable -->
<g id="node11" class="node"><title>maximum_borrowable</title>
<polygon fill="none" stroke="black" points="3248,-361 3102,-361 3102,-325 3248,-325 3248,-361"/>
<text text-anchor="middle" x="3175" y="-337.9" font-family="Times,serif" font-size="14.00">maximum_borrowable</text>
</g>
<!-- create_availability&#45;&gt;maximum_borrowable -->
<g id="edge28" class="edge"><title>create_availability&#45;&gt;maximum_borrowable:w</title>
<path fill="none" stroke="black" d="M2922,-279C2922,-279 3009.63,-337.978 3091.76,-342.7"/>
<polygon fill="black" stroke="black" points="3091.9,-346.206 3102,-343 3092.11,-339.209 3091.9,-346.206"/>
</g>
<!-- running_reservations -->
<g id="node17" class="node"><title>running_reservations</title>
<polygon fill="none" stroke="black" points="3242,-307 3108,-307 3108,-271 3242,-271 3242,-307"/>
<text text-anchor="middle" x="3175" y="-283.9" font-family="Times,serif" font-size="14.00">running_reservations</text>
</g>
<!-- create_availability&#45;&gt;running_reservations -->
<g id="edge130" class="edge"><title>create_availability&#45;&gt;running_reservations:w</title>
<path fill="none" stroke="black" d="M2922,-279C2922,-279 3016.41,-288.197 3096.77,-288.951"/>
<polygon fill="black" stroke="black" points="3096.98,-292.452 3107,-289 3097.02,-285.452 3096.98,-292.452"/>
</g>
<!-- Availability_new -->
<g id="node19" class="node"><title>Availability_new</title>
<polygon fill="none" stroke="black" points="3509,-475 3393,-475 3393,-439 3509,-439 3509,-475"/>
<text text-anchor="middle" x="3451" y="-451.9" font-family="Times,serif" font-size="14.00">Availability_new</text>
</g>
<!-- create_availability&#45;&gt;Availability_new -->
<g id="edge26" class="edge"><title>create_availability&#45;&gt;Availability_new:w</title>
<path fill="none" stroke="black" d="M2922,-279C2922,-279 3124.22,-193.245 3256,-262 3346.48,-309.206 3290.48,-447.125 3381.74,-456.498"/>
<polygon fill="black" stroke="black" points="3381.84,-460.006 3392,-457 3382.18,-453.015 3381.84,-460.006"/>
</g>
<!-- available_periods_for_inventory_pool&#45;&gt;create_availability -->
<g id="edge70" class="edge"><title>available_periods_for_inventory_pool&#45;&gt;create_availability:w</title>
<path fill="none" stroke="black" d="M2514,-176C2514,-176 2573.1,-173.316 2618,-185 2699.42,-206.188 2709.54,-261.23 2787.6,-265.709"/>
<polygon fill="black" stroke="black" points="2787.91,-269.219 2798,-266 2788.1,-262.222 2787.91,-269.219"/>
</g>
<!-- periods -->
<g id="node20" class="node"><title>periods</title>
<polygon fill="none" stroke="black" points="3204,-475 3146,-475 3146,-439 3204,-439 3204,-475"/>
<text text-anchor="middle" x="3175" y="-451.9" font-family="Times,serif" font-size="14.00">periods</text>
</g>
<!-- available_periods_for_inventory_pool&#45;&gt;periods -->
<g id="edge30" class="edge"><title>available_periods_for_inventory_pool&#45;&gt;periods:w</title>
<path fill="none" stroke="black" d="M2514,-176C2514,-176 2574.89,-167.846 2618,-185 2689.72,-213.539 2687.57,-253.705 2754,-293 2913.26,-387.205 2955.06,-454.532 3134.93,-456.934"/>
<polygon fill="black" stroke="black" points="3134.98,-460.434 3145,-457 3135.02,-453.434 3134.98,-460.434"/>
</g>
<!-- maximum_available_in_period_for_document_line -->
<g id="node13" class="node"><title>maximum_available_in_period_for_document_line</title>
<polygon fill="none" stroke="black" points="2616,-338 2306,-338 2306,-302 2616,-302 2616,-338"/>
<text text-anchor="middle" x="2461" y="-314.9" font-family="Times,serif" font-size="14.00">maximum_available_in_period_for_document_line</text>
</g>
<!-- maximum_available_in_period_for_document_line&#45;&gt;create_availability -->
<g id="edge74" class="edge"><title>maximum_available_in_period_for_document_line&#45;&gt;create_availability:w</title>
<path fill="none" stroke="black" d="M2521,-338C2521,-338 2663,-269.747 2787.89,-266.148"/>
<polygon fill="black" stroke="black" points="2788.05,-269.646 2798,-266 2787.95,-262.646 2788.05,-269.646"/>
</g>
<!-- maximum_available_in_period -->
<g id="node21" class="node"><title>maximum_available_in_period</title>
<polygon fill="none" stroke="black" points="2957,-529 2763,-529 2763,-493 2957,-493 2957,-529"/>
<text text-anchor="middle" x="2860" y="-505.9" font-family="Times,serif" font-size="14.00">maximum_available_in_period</text>
</g>
<!-- maximum_available_in_period_for_document_line&#45;&gt;maximum_available_in_period -->
<g id="edge34" class="edge"><title>maximum_available_in_period_for_document_line&#45;&gt;maximum_available_in_period:w</title>
<path fill="none" stroke="black" d="M2521,-338C2521,-338 2579.43,-327.338 2618,-347 2701.3,-389.457 2667.69,-502.431 2752.01,-510.539"/>
<polygon fill="black" stroke="black" points="2751.85,-514.036 2762,-511 2752.17,-507.043 2751.85,-514.036"/>
</g>
<!-- cancel_availability_change -->
<g id="node24" class="node"><title>cancel_availability_change</title>
<polygon fill="none" stroke="black" points="2946,-583 2774,-583 2774,-547 2946,-547 2946,-583"/>
<text text-anchor="middle" x="2860" y="-559.9" font-family="Times,serif" font-size="14.00">cancel_availability_change</text>
</g>
<!-- maximum_available_in_period_for_document_line&#45;&gt;cancel_availability_change -->
<g id="edge40" class="edge"><title>maximum_available_in_period_for_document_line&#45;&gt;cancel_availability_change:w</title>
<path fill="none" stroke="black" d="M2521,-338C2521,-338 2580.48,-325.389 2618,-347 2717.9,-404.544 2658.01,-555.485 2762.7,-564.571"/>
<polygon fill="black" stroke="black" points="2762.86,-568.081 2773,-565 2763.15,-561.087 2762.86,-568.081"/>
</g>
<!-- maximum_available_in_period_for_inventory_pool -->
<g id="node14" class="node"><title>maximum_available_in_period_for_inventory_pool</title>
<polygon fill="none" stroke="black" points="2617,-230 2305,-230 2305,-194 2617,-194 2617,-230"/>
<text text-anchor="middle" x="2461" y="-206.9" font-family="Times,serif" font-size="14.00">maximum_available_in_period_for_inventory_pool</text>
</g>
<!-- maximum_available_in_period_for_inventory_pool&#45;&gt;create_availability -->
<g id="edge76" class="edge"><title>maximum_available_in_period_for_inventory_pool&#45;&gt;create_availability:w</title>
<path fill="none" stroke="black" d="M2505,-230C2505,-230 2567.95,-233.26 2618,-239 2694.91,-247.821 2715.38,-264.488 2787.91,-265.904"/>
<polygon fill="black" stroke="black" points="2787.97,-269.404 2798,-266 2788.03,-262.405 2787.97,-269.404"/>
</g>
<!-- maximum_available_in_period_for_inventory_pool&#45;&gt;maximum_available_in_period -->
<g id="edge36" class="edge"><title>maximum_available_in_period_for_inventory_pool&#45;&gt;maximum_available_in_period:w</title>
<path fill="none" stroke="black" d="M2505,-230C2505,-230 2575.9,-211.319 2618,-239 2729.28,-312.173 2630.71,-500.704 2751.68,-510.595"/>
<polygon fill="black" stroke="black" points="2751.87,-514.105 2762,-511 2752.14,-507.111 2751.87,-514.105"/>
</g>
<!-- maximum_available_for_inventory_pool&#45;&gt;create_availability -->
<g id="edge72" class="edge"><title>maximum_available_for_inventory_pool&#45;&gt;create_availability:w</title>
<path fill="none" stroke="black" d="M2540,-284C2540,-284 2674.8,-267.039 2787.83,-266.045"/>
<polygon fill="black" stroke="black" points="2788.02,-269.545 2798,-266 2787.98,-262.545 2788.02,-269.545"/>
</g>
<!-- period_for -->
<g id="node22" class="node"><title>period_for</title>
<polygon fill="none" stroke="black" points="2898,-475 2822,-475 2822,-439 2898,-439 2898,-475"/>
<text text-anchor="middle" x="2860" y="-451.9" font-family="Times,serif" font-size="14.00">period_for</text>
</g>
<!-- maximum_available_for_inventory_pool&#45;&gt;period_for -->
<g id="edge32" class="edge"><title>maximum_available_for_inventory_pool&#45;&gt;period_for:w</title>
<path fill="none" stroke="black" d="M2540,-284C2540,-284 2586.52,-277.933 2618,-293 2719.45,-341.561 2705.97,-450.161 2810.83,-456.692"/>
<polygon fill="black" stroke="black" points="2810.9,-460.195 2821,-457 2811.11,-453.199 2810.9,-460.195"/>
</g>
<!-- unavailable_periods_for_document_line -->
<g id="node16" class="node"><title>unavailable_periods_for_document_line</title>
<polygon fill="none" stroke="black" points="2585,-392 2337,-392 2337,-356 2585,-356 2585,-392"/>
<text text-anchor="middle" x="2461" y="-368.9" font-family="Times,serif" font-size="14.00">unavailable_periods_for_document_line</text>
</g>
<!-- unavailable_periods_for_document_line&#45;&gt;cancel_availability_change -->
<g id="edge38" class="edge"><title>unavailable_periods_for_document_line:e&#45;&gt;cancel_availability_change:w</title>
<path fill="none" stroke="black" d="M2585,-374C2700.62,-374 2656.69,-553.973 2762.96,-564.518"/>
<polygon fill="black" stroke="black" points="2762.84,-568.016 2773,-565 2763.18,-561.024 2762.84,-568.016"/>
</g>
<!-- add_availability_change -->
<g id="node23" class="node"><title>add_availability_change</title>
<polygon fill="none" stroke="black" points="3811,-475 3655,-475 3655,-439 3811,-439 3811,-475"/>
<text text-anchor="middle" x="3733" y="-451.9" font-family="Times,serif" font-size="14.00">add_availability_change</text>
</g>
<!-- Availability_new&#45;&gt;add_availability_change -->
<g id="edge62" class="edge"><title>Availability_new:e&#45;&gt;add_availability_change:w</title>
<path fill="none" stroke="black" d="M3510,-457C3570.5,-457 3588.11,-457 3643.91,-457"/>
<polygon fill="black" stroke="black" points="3644,-460.5 3654,-457 3644,-453.5 3644,-460.5"/>
</g>
<!-- periods&#45;&gt;Availability_new -->
<g id="edge46" class="edge"><title>periods:e&#45;&gt;Availability_new:w</title>
<path fill="none" stroke="black" d="M3205,-457C3284.54,-457 3306.99,-457 3381.62,-457"/>
<polygon fill="black" stroke="black" points="3382,-460.5 3392,-457 3382,-453.5 3382,-460.5"/>
</g>
<!-- maximum_available_in_period&#45;&gt;periods -->
<g id="edge48" class="edge"><title>maximum_available_in_period&#45;&gt;periods:w</title>
<path fill="none" stroke="black" d="M2898,-529C2898,-529 3022.99,-461.157 3134.91,-457.182"/>
<polygon fill="black" stroke="black" points="3135.06,-460.68 3145,-457 3134.94,-453.681 3135.06,-460.68"/>
</g>
<!-- is_part_of -->
<g id="node26" class="node"><title>is_part_of</title>
<polygon fill="none" stroke="black" points="3211,-774 3139,-774 3139,-738 3211,-738 3211,-774"/>
<text text-anchor="middle" x="3175" y="-750.9" font-family="Times,serif" font-size="14.00">is_part_of</text>
</g>
<!-- maximum_available_in_period&#45;&gt;is_part_of -->
<g id="edge52" class="edge"><title>maximum_available_in_period&#45;&gt;is_part_of:w</title>
<path fill="none" stroke="black" d="M2898,-529C2898,-529 2934.83,-524.21 2958,-538 3062.92,-600.439 3015.26,-747.364 3127.75,-755.636"/>
<polygon fill="black" stroke="black" points="3127.88,-759.142 3138,-756 3128.13,-752.147 3127.88,-759.142"/>
</g>
<!-- encloses -->
<g id="node27" class="node"><title>encloses</title>
<polygon fill="none" stroke="black" points="3208,-720 3142,-720 3142,-684 3208,-684 3208,-720"/>
<text text-anchor="middle" x="3175" y="-696.9" font-family="Times,serif" font-size="14.00">encloses</text>
</g>
<!-- maximum_available_in_period&#45;&gt;encloses -->
<g id="edge54" class="edge"><title>maximum_available_in_period&#45;&gt;encloses:w</title>
<path fill="none" stroke="black" d="M2898,-529C2898,-529 2933.77,-526.157 2958,-538 3053.24,-584.561 3033.87,-694.601 3131.82,-701.645"/>
<polygon fill="black" stroke="black" points="3131.88,-705.149 3142,-702 3132.13,-698.154 3131.88,-705.149"/>
</g>
<!-- start_date_in -->
<g id="node28" class="node"><title>start_date_in</title>
<polygon fill="none" stroke="black" points="3219,-666 3131,-666 3131,-630 3219,-630 3219,-666"/>
<text text-anchor="middle" x="3175" y="-642.9" font-family="Times,serif" font-size="14.00">start_date_in</text>
</g>
<!-- maximum_available_in_period&#45;&gt;start_date_in -->
<g id="edge56" class="edge"><title>maximum_available_in_period&#45;&gt;start_date_in:w</title>
<path fill="none" stroke="black" d="M2898,-529C2898,-529 2932.75,-528.528 2958,-538 3039.64,-568.63 3039.41,-641.967 3119.79,-647.65"/>
<polygon fill="black" stroke="black" points="3119.89,-651.155 3130,-648 3120.13,-644.159 3119.89,-651.155"/>
</g>
<!-- end_date_in -->
<g id="node29" class="node"><title>end_date_in</title>
<polygon fill="none" stroke="black" points="3218,-828 3132,-828 3132,-792 3218,-792 3218,-828"/>
<text text-anchor="middle" x="3175" y="-804.9" font-family="Times,serif" font-size="14.00">end_date_in</text>
</g>
<!-- maximum_available_in_period&#45;&gt;end_date_in -->
<g id="edge58" class="edge"><title>maximum_available_in_period&#45;&gt;end_date_in:w</title>
<path fill="none" stroke="black" d="M2898,-529C2898,-529 2935.66,-522.905 2958,-538 3074.01,-616.376 2992.69,-800.708 3121.9,-809.662"/>
<polygon fill="black" stroke="black" points="3121.89,-813.163 3132,-810 3122.12,-806.167 3121.89,-813.163"/>
</g>
<!-- period_for&#45;&gt;periods -->
<g id="edge50" class="edge"><title>period_for:e&#45;&gt;periods:w</title>
<path fill="none" stroke="black" d="M2899,-457C3004.92,-457 3033.88,-457 3134.99,-457"/>
<polygon fill="black" stroke="black" points="3135,-460.5 3145,-457 3135,-453.5 3135,-460.5"/>
</g>
<!-- add_availability_change&#45;&gt;is_late -->
<g id="edge60" class="edge"><title>add_availability_change:e&#45;&gt;is_late:w</title>
<path fill="none" stroke="black" d="M3812,-457C3877.39,-457 3896.23,-457 3956.89,-457"/>
<polygon fill="black" stroke="black" points="3957,-460.5 3967,-457 3957,-453.5 3957,-460.5"/>
</g>
<!-- chart -->
<g id="node32" class="node"><title>chart</title>
<polygon fill="none" stroke="black" points="1374,-135 1320,-135 1320,-99 1374,-99 1374,-135"/>
<text text-anchor="middle" x="1347" y="-111.9" font-family="Times,serif" font-size="14.00">chart</text>
</g>
<!-- chart&#45;&gt;canvas_for_model_in_inventory_pools -->
<g id="edge64" class="edge"><title>chart:e&#45;&gt;canvas_for_model_in_inventory_pools:w</title>
<path fill="none" stroke="black" d="M1374,-117C1462.3,-117 1486.39,-103.121 1569.81,-102.064"/>
<polygon fill="black" stroke="black" points="1570.02,-105.562 1580,-102 1569.98,-98.5626 1570.02,-105.562"/>
</g>
<!-- AcknowledgeController_change_line_quantity -->
<g id="node34" class="node"><title>AcknowledgeController_change_line_quantity</title>
<polygon fill="none" stroke="black" points="304,-894 16,-894 16,-858 304,-858 304,-894"/>
<text text-anchor="middle" x="160" y="-870.9" font-family="Times,serif" font-size="14.00">AcknowledgeController_change_line_quantity</text>
</g>
<!-- update_line -->
<g id="node47" class="node"><title>update_line</title>
<polygon fill="none" stroke="black" points="614,-894 532,-894 532,-858 614,-858 614,-894"/>
<text text-anchor="middle" x="573" y="-870.9" font-family="Times,serif" font-size="14.00">update_line</text>
</g>
<!-- AcknowledgeController_change_line_quantity&#45;&gt;update_line -->
<g id="edge140" class="edge"><title>AcknowledgeController_change_line_quantity:e&#45;&gt;update_line:w</title>
<path fill="none" stroke="black" d="M304,-876C401.441,-876 428.299,-876 520.914,-876"/>
<polygon fill="black" stroke="black" points="521,-879.5 531,-876 521,-872.5 521,-879.5"/>
</g>
<!-- OrdersController_change_line_quantity -->
<g id="node36" class="node"><title>OrdersController_change_line_quantity</title>
<polygon fill="none" stroke="black" points="282,-806 38,-806 38,-770 282,-770 282,-806"/>
<text text-anchor="middle" x="160" y="-782.9" font-family="Times,serif" font-size="14.00">OrdersController_change_line_quantity</text>
</g>
<!-- OrdersController_change_line_quantity&#45;&gt;update_line -->
<g id="edge142" class="edge"><title>OrdersController_change_line_quantity:e&#45;&gt;update_line:w</title>
<path fill="none" stroke="black" d="M283,-788C396.529,-788 413.131,-870.919 520.98,-875.778"/>
<polygon fill="black" stroke="black" points="520.925,-879.277 531,-876 521.08,-872.279 520.925,-879.277"/>
</g>
<!-- DocumentLine_available -->
<g id="node38" class="node"><title>DocumentLine_available</title>
<polygon fill="none" stroke="black" points="1780,-423 1620,-423 1620,-387 1780,-387 1780,-423"/>
<text text-anchor="middle" x="1700" y="-399.9" font-family="Times,serif" font-size="14.00">DocumentLine_available</text>
</g>
<!-- maximum_available_quantity -->
<g id="node39" class="node"><title>maximum_available_quantity</title>
<polygon fill="none" stroke="black" points="2155,-423 1969,-423 1969,-387 2155,-387 2155,-423"/>
<text text-anchor="middle" x="2062" y="-399.9" font-family="Times,serif" font-size="14.00">maximum_available_quantity</text>
</g>
<!-- DocumentLine_available&#45;&gt;maximum_available_quantity -->
<g id="edge84" class="edge"><title>DocumentLine_available:e&#45;&gt;maximum_available_quantity:w</title>
<path fill="none" stroke="black" d="M1781,-405C1860.97,-405 1883.53,-405 1958.57,-405"/>
<polygon fill="black" stroke="black" points="1959,-408.5 1969,-405 1959,-401.5 1959,-408.5"/>
</g>
<!-- maximum_available_quantity&#45;&gt;maximum_available_in_period_for_document_line -->
<g id="edge86" class="edge"><title>maximum_available_quantity:e&#45;&gt;maximum_available_in_period_for_document_line:w</title>
<path fill="none" stroke="black" d="M2155,-405C2228.03,-405 2228.5,-327.782 2294.73,-320.543"/>
<polygon fill="black" stroke="black" points="2295.2,-324.023 2305,-320 2294.83,-317.033 2295.2,-324.023"/>
</g>
<!-- available_tooltip -->
<g id="node40" class="node"><title>available_tooltip</title>
<polygon fill="none" stroke="black" points="1403,-477 1291,-477 1291,-441 1403,-441 1403,-477"/>
<text text-anchor="middle" x="1347" y="-453.9" font-family="Times,serif" font-size="14.00">available_tooltip</text>
</g>
<!-- available_tooltip&#45;&gt;DocumentLine_available -->
<g id="edge98" class="edge"><title>available_tooltip:e&#45;&gt;DocumentLine_available:w</title>
<path fill="none" stroke="black" d="M1404,-459C1499.06,-459 1519.11,-408.73 1608.9,-405.196"/>
<polygon fill="black" stroke="black" points="1609.07,-408.693 1619,-405 1608.93,-401.694 1609.07,-408.693"/>
</g>
<!-- complete -->
<g id="node41" class="node"><title>complete</title>
<polygon fill="none" stroke="black" points="1382,-369 1312,-369 1312,-333 1382,-333 1382,-369"/>
<text text-anchor="middle" x="1347" y="-345.9" font-family="Times,serif" font-size="14.00">complete</text>
</g>
<!-- complete&#45;&gt;DocumentLine_available -->
<g id="edge100" class="edge"><title>complete:e&#45;&gt;DocumentLine_available:w</title>
<path fill="none" stroke="black" d="M1383,-351C1487.13,-351 1509.97,-401.576 1608.86,-404.835"/>
<polygon fill="black" stroke="black" points="1608.94,-408.337 1619,-405 1609.06,-401.338 1608.94,-408.337"/>
</g>
<!-- complete_tooltip -->
<g id="node42" class="node"><title>complete_tooltip</title>
<polygon fill="none" stroke="black" points="1405,-423 1289,-423 1289,-387 1405,-387 1405,-423"/>
<text text-anchor="middle" x="1347" y="-399.9" font-family="Times,serif" font-size="14.00">complete_tooltip</text>
</g>
<!-- complete_tooltip&#45;&gt;DocumentLine_available -->
<g id="edge102" class="edge"><title>complete_tooltip:e&#45;&gt;DocumentLine_available:w</title>
<path fill="none" stroke="black" d="M1405,-405C1496.67,-405 1522.08,-405 1608.96,-405"/>
<polygon fill="black" stroke="black" points="1609,-408.5 1619,-405 1609,-401.5 1609,-408.5"/>
</g>
<!-- tooltip -->
<g id="node43" class="node"><title>tooltip</title>
<polygon fill="none" stroke="black" points="1005,-423 951,-423 951,-387 1005,-387 1005,-423"/>
<text text-anchor="middle" x="978" y="-399.9" font-family="Times,serif" font-size="14.00">tooltip</text>
</g>
<!-- tooltip&#45;&gt;available_tooltip -->
<g id="edge104" class="edge"><title>tooltip&#45;&gt;available_tooltip:w</title>
<path fill="none" stroke="black" d="M1006,-407C1006,-407 1153.58,-456.294 1279.8,-458.893"/>
<polygon fill="black" stroke="black" points="1279.96,-462.395 1290,-459 1280.04,-455.396 1279.96,-462.395"/>
</g>
<!-- tooltip&#45;&gt;complete_tooltip -->
<g id="edge106" class="edge"><title>tooltip&#45;&gt;complete_tooltip:w</title>
<path fill="none" stroke="black" d="M1006,-407C1006,-407 1155.04,-405.104 1278.99,-405.004"/>
<polygon fill="black" stroke="black" points="1279,-408.504 1289,-405 1279,-401.504 1279,-408.504"/>
</g>
<!-- OrderLine_available -->
<g id="node45" class="node"><title>OrderLine_available</title>
<polygon fill="none" stroke="black" points="1414,-627 1280,-627 1280,-591 1414,-591 1414,-627"/>
<text text-anchor="middle" x="1347" y="-603.9" font-family="Times,serif" font-size="14.00">OrderLine_available</text>
</g>
<!-- OrderLine_available&#45;&gt;DocumentLine_available -->
<g id="edge128" class="edge"><title>OrderLine_available:e&#45;&gt;DocumentLine_available:w</title>
<path fill="none" stroke="black" d="M1415,-609C1539.72,-609 1493.51,-416.004 1608.88,-405.449"/>
<polygon fill="black" stroke="black" points="1609.17,-408.94 1619,-405 1608.85,-401.947 1609.17,-408.94"/>
</g>
<!-- update_line&#45;&gt;maximum_available_quantity -->
<g id="edge88" class="edge"><title>update_line:e&#45;&gt;maximum_available_quantity:w</title>
<path fill="none" stroke="black" d="M615,-876C729.574,-876 723.82,-980.572 834,-1012 957.09,-1047.11 1000.14,-1051.16 1122,-1012 1339.23,-942.197 1725.9,-420.608 1958.72,-405.342"/>
<polygon fill="black" stroke="black" points="1959.12,-408.831 1969,-405 1958.89,-401.835 1959.12,-408.831"/>
</g>
<!-- approvable -->
<g id="node48" class="node"><title>approvable</title>
<polygon fill="none" stroke="black" points="1017,-840 939,-840 939,-804 1017,-804 1017,-840"/>
<text text-anchor="middle" x="978" y="-816.9" font-family="Times,serif" font-size="14.00">approvable</text>
</g>
<!-- approvable&#45;&gt;OrderLine_available -->
<g id="edge134" class="edge"><title>approvable:e&#45;&gt;OrderLine_available:w</title>
<path fill="none" stroke="black" d="M1018,-822C1164.22,-822 1130.97,-618.867 1268.78,-609.346"/>
<polygon fill="black" stroke="black" points="1269.12,-612.836 1279,-609 1268.89,-605.84 1269.12,-612.836"/>
</g>
<!-- approve -->
<g id="node49" class="node"><title>approve</title>
<polygon fill="none" stroke="black" points="604,-840 542,-840 542,-804 604,-804 604,-840"/>
<text text-anchor="middle" x="573" y="-816.9" font-family="Times,serif" font-size="14.00">approve</text>
</g>
<!-- approve&#45;&gt;approvable -->
<g id="edge108" class="edge"><title>approve:e&#45;&gt;approvable:w</title>
<path fill="none" stroke="black" d="M604,-822C748.965,-822 787.755,-822 927.743,-822"/>
<polygon fill="black" stroke="black" points="928,-825.5 938,-822 928,-818.5 928,-825.5"/>
</g>
<!-- acknowledge_line_erb -->
<g id="node51" class="node"><title>acknowledge_line_erb</title>
<polygon fill="none" stroke="black" points="647,-529 499,-529 499,-493 647,-493 647,-529"/>
<text text-anchor="middle" x="573" y="-505.9" font-family="Times,serif" font-size="14.00">acknowledge_line_erb</text>
</g>
<!-- acknowledge_line_erb&#45;&gt;tooltip -->
<g id="edge112" class="edge"><title>acknowledge_line_erb&#45;&gt;tooltip:w</title>
<path fill="none" stroke="black" d="M647,-506C647,-506 800.588,-409.679 939.99,-405.164"/>
<polygon fill="black" stroke="black" points="940.059,-408.663 950,-405 939.944,-401.664 940.059,-408.663"/>
</g>
<!-- acknowledge_line_erb&#45;&gt;OrderLine_available -->
<g id="edge110" class="edge"><title>acknowledge_line_erb&#45;&gt;OrderLine_available:w</title>
<path fill="none" stroke="black" d="M978,-609C1108.01,-616.836 1143.38,-609.413 1268.62,-609.016"/>
<polygon fill="black" stroke="black" points="1269.01,-612.516 1279,-609 1268.99,-605.516 1269.01,-612.516"/>
<path fill="none" stroke="black" d="M647,-506C647,-506 811.826,-588.85 834,-595 895.962,-612.186 913.815,-605.131 978,-609"/>
</g>
<!-- acknowledge_approve_erb -->
<g id="node53" class="node"><title>acknowledge_approve_erb</title>
<polygon fill="none" stroke="black" points="658,-673 488,-673 488,-637 658,-637 658,-673"/>
<text text-anchor="middle" x="573" y="-649.9" font-family="Times,serif" font-size="14.00">acknowledge_approve_erb</text>
</g>
<!-- acknowledge_approve_erb&#45;&gt;approvable -->
<g id="edge126" class="edge"><title>acknowledge_approve_erb:e&#45;&gt;approvable:w</title>
<path fill="none" stroke="black" d="M658,-655C799.36,-655 793.488,-813.945 927.659,-821.706"/>
<polygon fill="black" stroke="black" points="927.905,-825.215 938,-822 928.103,-818.217 927.905,-825.215"/>
</g>
<!-- models_index_erb -->
<g id="node55" class="node"><title>models_index_erb</title>
<polygon fill="none" stroke="black" points="2123,-286 2001,-286 2001,-250 2123,-250 2123,-286"/>
<text text-anchor="middle" x="2062" y="-262.9" font-family="Times,serif" font-size="14.00">models_index_erb</text>
</g>
<!-- models_index_erb&#45;&gt;maximum_available_in_period_for_inventory_pool -->
<g id="edge90" class="edge"><title>models_index_erb:e&#45;&gt;maximum_available_in_period_for_inventory_pool:w</title>
<path fill="none" stroke="black" d="M2124,-268C2204.18,-268 2219.02,-216.709 2293.58,-212.301"/>
<polygon fill="black" stroke="black" points="2294.11,-215.788 2304,-212 2293.9,-208.791 2294.11,-215.788"/>
</g>
<!-- models_show_erb -->
<g id="node57" class="node"><title>models_show_erb</title>
<polygon fill="none" stroke="black" points="1407,-52 1287,-52 1287,-16 1407,-16 1407,-52"/>
<text text-anchor="middle" x="1347" y="-28.9" font-family="Times,serif" font-size="14.00">models_show_erb</text>
</g>
<!-- models_show_erb&#45;&gt;canvas_for -->
<g id="edge68" class="edge"><title>models_show_erb:e&#45;&gt;canvas_for:w</title>
<path fill="none" stroke="black" d="M1408,-34C1517.1,-34 1546.57,-47.1387 1650.69,-47.9598"/>
<polygon fill="black" stroke="black" points="1650.99,-51.4609 1661,-48 1651.01,-44.461 1650.99,-51.4609"/>
</g>
<!-- frontend_models_erb -->
<g id="node59" class="node"><title>frontend_models_erb</title>
<polygon fill="none" stroke="black" points="1047,-135 909,-135 909,-99 1047,-99 1047,-135"/>
<text text-anchor="middle" x="978" y="-111.9" font-family="Times,serif" font-size="14.00">frontend_models_erb</text>
</g>
<!-- frontend_models_erb&#45;&gt;chart -->
<g id="edge92" class="edge"><title>frontend_models_erb:e&#45;&gt;chart:w</title>
<path fill="none" stroke="black" d="M1048,-117C1165.47,-117 1197.33,-117 1309.94,-117"/>
<polygon fill="black" stroke="black" points="1310,-120.5 1320,-117 1310,-113.5 1310,-120.5"/>
</g>
<!-- show -->
<g id="node60" class="node"><title>show</title>
<polygon fill="none" stroke="black" points="187,-752 133,-752 133,-716 187,-716 187,-752"/>
<text text-anchor="middle" x="160" y="-728.9" font-family="Times,serif" font-size="14.00">show</text>
</g>
<!-- show&#45;&gt;OrderLine_available -->
<g id="edge132" class="edge"><title>show&#45;&gt;OrderLine_available:w</title>
<path fill="none" stroke="black" d="M187,-734C187,-734 323.965,-651.548 446,-625 677.145,-574.715 741.877,-594.768 978,-609"/>
</g>
<!-- show&#45;&gt;approvable -->
<g id="edge96" class="edge"><title>show&#45;&gt;approvable:w</title>
<path fill="none" stroke="black" d="M187,-734C187,-734 837.828,-811.344 927.835,-821.012"/>
<polygon fill="black" stroke="black" points="927.708,-824.516 938,-822 928.386,-817.549 927.708,-824.516"/>
</g>
<!-- DocumentLine_available_tooltip -->
<g id="node107" class="node"><title>DocumentLine_available_tooltip</title>
<polygon fill="none" stroke="black" points="676,-748 470,-748 470,-712 676,-712 676,-748"/>
<text text-anchor="middle" x="573" y="-724.9" font-family="Times,serif" font-size="14.00">DocumentLine_available_tooltip</text>
</g>
<!-- show&#45;&gt;DocumentLine_available_tooltip -->
<g id="edge94" class="edge"><title>show&#45;&gt;DocumentLine_available_tooltip:w</title>
<path fill="none" stroke="black" d="M187,-734C187,-734 336.029,-730.208 459.988,-730.008"/>
<polygon fill="black" stroke="black" points="460.003,-733.508 470,-730 459.997,-726.508 460.003,-733.508"/>
</g>
<!-- acknowledge_change_line_quantity -->
<g id="node62" class="node"><title>acknowledge_change_line_quantity</title>
<polygon fill="none" stroke="black" points="1090,-977 866,-977 866,-941 1090,-941 1090,-977"/>
<text text-anchor="middle" x="978" y="-953.9" font-family="Times,serif" font-size="14.00">acknowledge_change_line_quantity</text>
</g>
<!-- acknowledge_change_line_quantity&#45;&gt;OrderLine_available -->
<g id="edge136" class="edge"><title>acknowledge_change_line_quantity:e&#45;&gt;OrderLine_available:w</title>
<path fill="none" stroke="black" d="M1090,-959C1263.16,-959 1108.82,-623.208 1268.55,-609.436"/>
<polygon fill="black" stroke="black" points="1269.15,-612.913 1279,-609 1268.86,-605.92 1269.15,-612.913"/>
</g>
<!-- cluster_hand_over_item_line -->
<g id="node64" class="node"><title>cluster_hand_over_item_line</title>
<polygon fill="none" stroke="black" points="664,-327 482,-327 482,-291 664,-291 664,-327"/>
<text text-anchor="middle" x="573" y="-303.9" font-family="Times,serif" font-size="14.00">cluster_hand_over_item_line</text>
</g>
<!-- cluster_hand_over_item_line&#45;&gt;DocumentLine_available -->
<g id="edge114" class="edge"><title>cluster_hand_over_item_line&#45;&gt;DocumentLine_available:w</title>
<path fill="none" stroke="black" d="M665,-320C665,-320 838.777,-301.353 978,-305"/>
<path fill="none" stroke="black" d="M978,-305C1185.21,-310.427 1242.52,-275.308 1444,-324 1523.89,-343.307 1532.67,-400.076 1608.85,-404.7"/>
<polygon fill="black" stroke="black" points="1608.9,-408.203 1619,-405 1609.11,-401.206 1608.9,-408.203"/>
</g>
<!-- cluster_hand_over_item_line&#45;&gt;complete -->
<g id="edge116" class="edge"><title>cluster_hand_over_item_line&#45;&gt;complete:w</title>
<path fill="none" stroke="black" d="M978,-305C1123.85,-308.82 1159.93,-349.048 1300.68,-350.932"/>
<polygon fill="black" stroke="black" points="1300.98,-354.434 1311,-351 1301.02,-347.434 1300.98,-354.434"/>
</g>
<!-- cluster_hand_over_item_line&#45;&gt;tooltip -->
<g id="edge118" class="edge"><title>cluster_hand_over_item_line&#45;&gt;tooltip:w</title>
<path fill="none" stroke="black" d="M665,-320C665,-320 810.158,-400.738 939.895,-404.838"/>
<polygon fill="black" stroke="black" points="939.945,-408.34 950,-405 940.057,-401.34 939.945,-408.34"/>
</g>
<!-- cluster_hand_over_option_line -->
<g id="node66" class="node"><title>cluster_hand_over_option_line</title>
<polygon fill="none" stroke="black" points="670,-415 476,-415 476,-379 670,-379 670,-415"/>
<text text-anchor="middle" x="573" y="-391.9" font-family="Times,serif" font-size="14.00">cluster_hand_over_option_line</text>
</g>
<!-- cluster_hand_over_option_line&#45;&gt;complete -->
<g id="edge120" class="edge"><title>cluster_hand_over_option_line&#45;&gt;complete:w</title>
<path fill="none" stroke="black" d="M670,-395C670,-395 1017.16,-352.025 1300.93,-351.018"/>
<polygon fill="black" stroke="black" points="1301.01,-354.518 1311,-351 1300.99,-347.518 1301.01,-354.518"/>
</g>
<!-- cluster_hand_over_option_line&#45;&gt;tooltip -->
<g id="edge122" class="edge"><title>cluster_hand_over_option_line&#45;&gt;tooltip:w</title>
<path fill="none" stroke="black" d="M670,-395C670,-395 817.09,-404.461 939.72,-404.978"/>
<polygon fill="black" stroke="black" points="939.992,-408.478 950,-405 940.008,-401.478 939.992,-408.478"/>
</g>
<!-- orders_line -->
<g id="node68" class="node"><title>orders_line</title>
<polygon fill="none" stroke="black" points="1019,-560 937,-560 937,-524 1019,-524 1019,-560"/>
<text text-anchor="middle" x="978" y="-536.9" font-family="Times,serif" font-size="14.00">orders_line</text>
</g>
<!-- orders_line&#45;&gt;available_tooltip -->
<g id="edge124" class="edge"><title>orders_line&#45;&gt;available_tooltip:w</title>
<path fill="none" stroke="black" d="M1019,-541C1019,-541 1076.43,-525.6 1122,-512 1193.65,-490.616 1210.27,-461.734 1279.82,-459.182"/>
<polygon fill="black" stroke="black" points="1280.06,-462.678 1290,-459 1279.94,-455.679 1280.06,-462.678"/>
</g>
<!-- orders_line&#45;&gt;OrderLine_available -->
<g id="edge138" class="edge"><title>orders_line&#45;&gt;OrderLine_available:w</title>
<path fill="none" stroke="black" d="M1019,-541C1019,-541 1151.71,-605.203 1268.8,-608.839"/>
<polygon fill="black" stroke="black" points="1268.95,-612.342 1279,-609 1269.06,-605.343 1268.95,-612.342"/>
</g>
<!-- time_line -->
<g id="node70" class="node"><title>time_line</title>
<polygon fill="none" stroke="black" points="2098,-203 2026,-203 2026,-167 2098,-167 2098,-203"/>
<text text-anchor="middle" x="2062" y="-179.9" font-family="Times,serif" font-size="14.00">time_line</text>
</g>
<!-- time_line&#45;&gt;unavailable_periods_for_document_line -->
<g id="edge24" class="edge"><title>time_line:e&#45;&gt;unavailable_periods_for_document_line:w</title>
<path fill="none" stroke="black" d="M2098,-185C2229.98,-185 2203.09,-364.524 2327,-373.641"/>
<polygon fill="black" stroke="black" points="2326.88,-377.138 2337,-374 2327.13,-370.143 2326.88,-377.138"/>
</g>
</g>
</svg>
